PathFileType	4	(X/Y/Z)	c:/Users/goper/Files/vsCode/490R/osim_files/A04/A04_Static02.trc
DataRate	CameraRate	NumFrames	NumMarkers	Units                	OrigDataRate	OrigDataStartFrame	OrigNumFrames
120.00	120.00	4	36	mm	120.0	214	855
                Frame#	Time	LPSIS			LASIS			LTH1			LTH2			LTH3			LTH4			LLFE			LMFE			LSH1			LSH2			LSH3			LSH4			LLMAL			LMMAL			LCAL			LMTP5			LTOE			LMTP1			RPSIS			RASIS			RTH1			RTH2			RTH3			RTH4			RLFE			RMFE			RSH1			RSH2			RSH3			RSH4			RLMAL			RMMAL			RCAL			RMTP1			RTOE			RMTP5		
		X1	Y1	Z1	X2	Y2	Z2	X3	Y3	Z3	X4	Y4	Z4	X5	Y5	Z5	X6	Y6	Z6	X7	Y7	Z7	X8	Y8	Z8	X9	Y9	Z9	X10	Y10	Z10	X11	Y11	Z11	X12	Y12	Z12	X13	Y13	Z13	X14	Y14	Z14	X15	Y15	Z15	X16	Y16	Z16	X17	Y17	Z17	X18	Y18	Z18	X19	Y19	Z19	X20	Y20	Z20	X21	Y21	Z21	X22	Y22	Z22	X23	Y23	Z23	X24	Y24	Z24	X25	Y25	Z25	X26	Y26	Z26	X27	Y27	Z27	X28	Y28	Z28	X29	Y29	Z29	X30	Y30	Z30	X31	Y31	Z31	X32	Y32	Z32	X33	Y33	Z33	X34	Y34	Z34	X35	Y35	Z35	X36	Y36	Z36

214	1.77500	-266.16092	1054.16809	394.60065	-46.34042	1015.17346	301.63623	-168.33656	711.91760	276.94992	-169.52393	667.78973	275.37891	-107.17525	707.28290	276.76825	-115.57701	662.90558	275.30630	-161.17181	538.25214	277.44681	-130.91098	525.77020	413.86044	-209.59383	442.41360	273.43503	-208.70248	398.88257	271.46857	-147.32272	435.69980	277.51035	-156.01524	393.00824	276.78088	-273.32516	116.10419	294.42990	-242.18457	115.32845	374.62622	-333.27194	75.60123	354.26355	-141.30176	60.24521	242.08331	-85.27052	72.34541	296.83951	-99.83095	55.76169	342.55951	-262.65829	1046.34058	500.14197	-35.49287	1037.31140	589.79993	-159.83902	732.39337	627.39166	-154.26730	690.74371	625.03204	-98.52233	734.93903	635.66119	-100.93788	687.81531	629.49115	-110.13520	551.03668	605.20905	-98.41558	545.50336	487.63275	-198.88072	346.10901	597.83466	-200.71031	298.87741	590.77002	-138.24947	337.60785	604.39490	-148.83189	291.24045	600.61011	-201.56496	104.15764	598.60211	-170.44458	110.80228	465.66876	-269.47125	60.71519	517.77704	-44.35839	54.25568	490.07962	-22.03376	75.13776	537.80090	-58.66368	48.69442	608.93823
215	1.78333	-266.23566	1054.15466	394.70380	-46.43886	1015.19910	301.68463	-168.42487	711.91718	277.02863	-169.57733	667.77875	275.44110	-107.26061	707.28308	276.82776	-115.63869	662.91931	275.34848	-161.19543	538.27325	277.49384	-130.94943	525.77344	413.89911	-209.58995	442.40833	273.43326	-208.74837	398.87589	271.51389	-147.35132	435.72708	277.53561	-156.05034	393.00925	276.80548	-273.36087	116.10239	294.45920	-242.20714	115.31936	374.63666	-333.20636	75.58071	354.27155	-141.29922	60.28814	242.06622	-85.26354	72.38405	296.83566	-99.81891	55.80328	342.53149	-262.76086	1046.35425	500.29346	-35.49681	1037.37842	589.81677	-159.92061	732.45618	627.39014	-154.34210	690.79999	625.03082	-98.55164	734.98297	635.68042	-100.62369	687.84821	629.49457	-110.21005	551.06708	605.24054	-98.46832	545.53058	487.66272	-198.94394	346.15433	597.84772	-200.77388	298.91479	590.75085	-138.28329	337.63702	604.39441	-148.60809	291.23468	600.59003	-201.54750	104.20476	598.58368	-170.43413	110.80739	465.66806	-269.49463	60.75513	517.76892	-44.39389	54.25728	490.10150	-22.03762	75.18761	537.76855	-58.65866	48.74356	608.93756
216	1.79167	-266.31027	1054.15674	394.82504	-46.47565	1015.21320	301.73886	-168.46083	711.92694	277.07254	-169.60948	667.81342	275.48471	-107.33831	707.28265	276.87579	-115.71216	662.94672	275.40839	-161.23798	538.28918	277.52466	-130.97772	525.74884	413.95294	-209.88300	442.37976	273.46811	-208.77362	398.88632	271.53458	-147.38539	435.72589	277.56726	-156.06754	393.02328	276.83661	-273.31641	116.09358	294.47705	-242.19777	115.30727	374.65704	-333.22580	75.55808	354.26767	-141.27194	60.30629	242.06891	-85.24657	72.38270	296.84012	-99.81753	55.80749	342.53214	-262.81671	1046.36951	500.41016	-35.47820	1037.39648	589.86151	-159.93105	732.45135	627.42847	-154.31668	690.80487	625.07104	-98.58640	734.97247	635.73645	-101.02263	687.83600	629.51837	-110.19576	551.05811	605.27582	-98.49617	545.53796	487.68680	-198.91890	346.13184	597.88080	-200.75114	298.92981	590.78662	-138.27646	337.62460	604.42322	-148.83006	291.25449	600.62628	-201.50989	104.20334	598.61646	-170.43669	110.82819	465.67911	-269.46249	60.74509	517.72809	-44.23475	54.54716	489.90277	-22.01448	75.19413	537.76215	-58.64104	48.73813	608.92572
217	1.80000	-266.36377	1054.14270	394.90866	-46.53543	1015.21021	301.78824	-168.51546	711.91931	277.13031	-169.63330	667.80280	275.51352	-107.37857	707.29492	276.92789	-115.78159	662.93878	275.46472	-161.27948	538.27557	277.54272	-131.02522	525.73383	413.97266	-209.71162	442.40030	273.52798	-208.78226	398.88995	271.53140	-147.42174	435.72342	277.59186	-156.09697	393.03223	276.84494	-273.33496	116.07706	294.48895	-242.21632	115.28934	374.65045	-333.20889	75.48737	354.34201	-141.30334	60.27797	242.07318	-85.27959	72.34476	296.86398	-99.87035	55.73729	342.55420	-262.85599	1046.35352	500.50821	-35.58298	1037.33203	589.93567	-159.84283	732.35913	627.47406	-154.40427	690.74066	625.12671	-98.64678	734.94281	635.78381	-101.09621	687.79974	629.59760	-110.26221	551.00482	605.33038	-98.53815	545.53607	487.71957	-198.95723	346.07889	597.92474	-200.77235	298.86084	590.82336	-138.33395	337.57596	604.46924	-148.86932	291.21591	600.66016	-201.55598	104.15851	598.62103	-170.44556	110.81986	465.67313	-269.49362	60.71836	517.79840	-44.29888	54.48719	489.94351	-22.06025	75.14500	537.81146	-58.66137	48.69603	608.96851
